REM DIRINDEX 1\2,1\3,1\4,1\5
REM DIRNAME cjc004,folder01,folder02,folder03,folder04
TITLE ""
FILE "1Q_t_1520-1529.mp3" MP3
  TRACK 01 AUDIO
    TITLE "3:cjc004_5466"
    INDEX 01 00:00:00
  TRACK 02 AUDIO
    TITLE "0:"
    INDEX 01 00:00:68
  TRACK 03 AUDIO
    TITLE "4:cjc004_5467"
    INDEX 01 00:01:24
  TRACK 04 AUDIO
    TITLE "0:"
    INDEX 01 00:02:24
  TRACK 05 AUDIO
    TITLE "5:cjc004_5468"
    INDEX 01 00:02:51
  TRACK 06 AUDIO
    TITLE "0:"
    INDEX 01 00:07:31
  TRACK 07 AUDIO
    TITLE "3:cjc004_5469"
    INDEX 01 00:08:15
  TRACK 08 AUDIO
    TITLE "0:"
    INDEX 01 00:09:28
  TRACK 09 AUDIO
    TITLE "4:cjc004_5470"
    INDEX 01 00:09:61
  TRACK 10 AUDIO
    TITLE "0:"
    INDEX 01 00:10:70
  TRACK 11 AUDIO
    TITLE "5:cjc004_5471"
    INDEX 01 00:11:21
  TRACK 12 AUDIO
    TITLE "0:"
    INDEX 01 00:15:48
  TRACK 13 AUDIO
    TITLE "3:cjc004_5472"
    INDEX 01 00:16:24
  TRACK 14 AUDIO
    TITLE "0:"
    INDEX 01 00:17:43
  TRACK 15 AUDIO
    TITLE "4:cjc004_5473"
    INDEX 01 00:17:74
  TRACK 16 AUDIO
    TITLE "0:"
    INDEX 01 00:19:22
  TRACK 17 AUDIO
    TITLE "5:cjc004_5474"
    INDEX 01 00:19:44
  TRACK 18 AUDIO
    TITLE "0:"
    INDEX 01 00:24:24
  TRACK 19 AUDIO
    TITLE "3:cjc004_5475"
    INDEX 01 00:24:74
  TRACK 20 AUDIO
    TITLE "0:"
    INDEX 01 00:26:15
  TRACK 21 AUDIO
    TITLE "4:cjc004_5476"
    INDEX 01 00:26:48
  TRACK 22 AUDIO
    TITLE "0:"
    INDEX 01 00:27:69
  TRACK 23 AUDIO
    TITLE "5:cjc004_5477"
    INDEX 01 00:28:15
  TRACK 24 AUDIO
    TITLE "0:"
    INDEX 01 00:32:31
  TRACK 25 AUDIO
    TITLE "3:cjc004_5478"
    INDEX 01 00:33:11
  TRACK 26 AUDIO
    TITLE "0:"
    INDEX 01 00:34:22
  TRACK 27 AUDIO
    TITLE "4:cjc004_5479"
    INDEX 01 00:34:47
  TRACK 28 AUDIO
    TITLE "0:"
    INDEX 01 00:36:33
  TRACK 29 AUDIO
    TITLE "5:cjc004_5480"
    INDEX 01 00:36:60
  TRACK 30 AUDIO
    TITLE "0:"
    INDEX 01 00:40:48
  TRACK 31 AUDIO
    TITLE "3:cjc004_5481"
    INDEX 01 00:41:24
  TRACK 32 AUDIO
    TITLE "0:"
    INDEX 01 00:42:39
  TRACK 33 AUDIO
    TITLE "4:cjc004_5482"
    INDEX 01 00:42:68
  TRACK 34 AUDIO
    TITLE "0:"
    INDEX 01 00:44:18
  TRACK 35 AUDIO
    TITLE "5:cjc004_5483"
    INDEX 01 00:44:52
  TRACK 36 AUDIO
    TITLE "0:"
    INDEX 01 00:49:61
  TRACK 37 AUDIO
    TITLE "3:cjc004_5484"
    INDEX 01 00:50:42
  TRACK 38 AUDIO
    TITLE "0:"
    INDEX 01 00:51:54
  TRACK 39 AUDIO
    TITLE "4:cjc004_5485"
    INDEX 01 00:52:10
  TRACK 40 AUDIO
    TITLE "0:"
    INDEX 01 00:53:29
  TRACK 41 AUDIO
    TITLE "5:cjc004_5486"
    INDEX 01 00:53:58
  TRACK 42 AUDIO
    TITLE "0:"
    INDEX 01 00:58:67
  TRACK 43 AUDIO
    TITLE "3:cjc004_5487"
    INDEX 01 00:59:45
  TRACK 44 AUDIO
    TITLE "0:"
    INDEX 01 01:00:62
  TRACK 45 AUDIO
    TITLE "4:cjc004_5488"
    INDEX 01 01:01:27
  TRACK 46 AUDIO
    TITLE "0:"
    INDEX 01 01:02:40
  TRACK 47 AUDIO
    TITLE "5:cjc004_5489"
    INDEX 01 01:02:65
  TRACK 48 AUDIO
    TITLE "0:"
    INDEX 01 01:08:25
  TRACK 49 AUDIO
    TITLE "3:cjc004_5490"
    INDEX 01 01:09:09
  TRACK 50 AUDIO
    TITLE "0:"
    INDEX 01 01:10:30
  TRACK 51 AUDIO
    TITLE "4:cjc004_5491"
    INDEX 01 01:10:57
  TRACK 52 AUDIO
    TITLE "0:"
    INDEX 01 01:12:40
  TRACK 53 AUDIO
    TITLE "5:cjc004_5492"
    INDEX 01 01:12:71
  TRACK 54 AUDIO
    TITLE "0:"
    INDEX 01 01:17:16
  TRACK 55 AUDIO
    TITLE "3:cjc004_5493"
    INDEX 01 01:18:04
  TRACK 56 AUDIO
    TITLE "0:"
    INDEX 01 01:19:11
  TRACK 57 AUDIO
    TITLE "4:cjc004_5494"
    INDEX 01 01:19:40
  TRACK 58 AUDIO
    TITLE "0:"
    INDEX 01 01:20:42
  TRACK 59 AUDIO
    TITLE "5:cjc004_5495"
    INDEX 01 01:20:67
  TRACK 60 AUDIO
    TITLE "0:"
    INDEX 01 01:26:29
